<svg width="160.801" height="50" viewBox="0 0 160.801 34.85" xmlns="http://www.w3.org/2000/svg"><g id="svgGroup" stroke-linecap="round" fill-rule="evenodd" font-size="9pt" stroke="#000" stroke-width="0.25mm" fill="#000" style="stroke:#000;stroke-width:0.25mm;fill:#000"><path d="M 32.9 5 L 31 5.15 Q 30.95 6.55 30.95 9.3 Q 30.95 21.55 32.05 31.2 L 33.9 31.35 A 15.388 15.388 0 0 1 33.961 31.918 Q 33.985 32.198 33.995 32.443 A 7.566 7.566 0 0 1 34 32.725 Q 34 33.3 33.85 34.15 A 113.74 113.74 0 0 0 32.213 34.116 Q 31.374 34.104 30.436 34.101 A 201.085 201.085 0 0 0 29.8 34.1 A 181.931 181.931 0 0 0 28.159 34.107 Q 27.511 34.113 26.921 34.124 A 100.389 100.389 0 0 0 25.8 34.15 A 8.753 8.753 0 0 1 25.7 33.548 Q 25.65 33.157 25.65 32.825 A 8.727 8.727 0 0 1 25.662 32.391 Q 25.684 31.941 25.75 31.35 L 27.4 31.2 Q 27.486 28.106 27.498 24.256 A 408.087 408.087 0 0 0 27.5 22.975 Q 27.5 19.434 27.236 13.768 A 461.901 461.901 0 0 0 27.05 10.1 Q 26.582 11.083 24.801 14.692 A 2285.313 2285.313 0 0 1 24.55 15.2 Q 20.1 24.05 18.45 28.25 Q 17.45 28.65 16.325 28.65 Q 15.351 28.65 14.921 28.613 A 3.257 3.257 0 0 1 14.8 28.6 A 78.723 78.723 0 0 0 13.316 25.276 Q 12.591 23.741 11.718 22.028 A 172.192 172.192 0 0 0 9.825 18.425 Q 6.6 12.45 6 11.35 A 305.073 305.073 0 0 0 5.756 16.369 Q 5.678 18.333 5.639 20.084 A 148.038 148.038 0 0 0 5.6 23.375 A 413.807 413.807 0 0 0 5.606 25.711 Q 5.625 29.025 5.7 31.2 L 7.55 31.35 A 15.388 15.388 0 0 1 7.611 31.918 Q 7.635 32.198 7.645 32.443 A 7.566 7.566 0 0 1 7.65 32.725 Q 7.65 33.3 7.5 34.15 A 95.116 95.116 0 0 0 6.004 34.116 Q 4.981 34.1 3.8 34.1 Q 2.356 34.1 1.172 34.124 A 83.422 83.422 0 0 0 0.15 34.15 A 8.753 8.753 0 0 1 0.05 33.548 Q 0 33.157 0 32.825 A 8.727 8.727 0 0 1 0.012 32.391 Q 0.034 31.941 0.1 31.35 L 1.85 31.2 Q 2.9 22.1 2.9 9.65 A 68.169 68.169 0 0 0 2.841 6.767 A 55.957 55.957 0 0 0 2.75 5.15 L 0.9 5 A 6.62 6.62 0 0 1 0.779 4.165 A 8.582 8.582 0 0 1 0.75 3.45 Q 0.75 2.6 0.8 2.2 Q 4.9 2.1 7 1.95 Q 7.85 6.55 17.1 23.6 Q 24.585 8.972 25.991 2.242 A 20.876 20.876 0 0 0 26.05 1.95 A 38.249 38.249 0 0 0 27.096 2.018 Q 29.095 2.123 33 2.2 Q 33.05 2.6 33.05 3.45 A 8.372 8.372 0 0 1 33.008 4.311 A 6.464 6.464 0 0 1 32.9 5 Z M 104.15 16.6 L 104.1 21.45 Q 104.1 26.75 104.7 31.2 L 106.45 31.35 A 15.388 15.388 0 0 1 106.511 31.918 Q 106.535 32.198 106.545 32.443 A 7.566 7.566 0 0 1 106.55 32.725 Q 106.55 33.3 106.4 34.15 Q 105.197 34.116 103.698 34.105 A 198.835 198.835 0 0 0 102.275 34.1 A 191.298 191.298 0 0 0 100.589 34.107 Q 99.926 34.113 99.328 34.124 A 99.119 99.119 0 0 0 98.2 34.15 A 8.753 8.753 0 0 1 98.1 33.548 Q 98.05 33.157 98.05 32.825 A 8.727 8.727 0 0 1 98.062 32.391 Q 98.084 31.941 98.15 31.35 L 99.9 31.2 A 162.222 162.222 0 0 0 100.173 26.705 Q 100.268 24.648 100.292 22.805 A 93.623 93.623 0 0 0 100.3 21.6 A 39.706 39.706 0 0 0 100.255 19.638 Q 100.153 17.597 99.826 16.244 A 8.041 8.041 0 0 0 99.575 15.4 A 3.328 3.328 0 0 0 98.969 14.335 Q 98.345 13.619 97.317 13.451 A 4.142 4.142 0 0 0 96.65 13.4 A 5.806 5.806 0 0 0 94.309 13.928 Q 92.55 14.7 90.65 16.6 L 90.65 21.3 A 139.078 139.078 0 0 0 90.694 24.909 Q 90.788 28.502 91.08 31.033 A 39.751 39.751 0 0 0 91.1 31.2 L 92.95 31.35 A 15.388 15.388 0 0 1 93.011 31.918 Q 93.035 32.198 93.045 32.443 A 7.566 7.566 0 0 1 93.05 32.725 Q 93.05 33.3 92.9 34.15 A 113.74 113.74 0 0 0 91.263 34.116 Q 90.424 34.104 89.486 34.101 A 201.085 201.085 0 0 0 88.85 34.1 A 181.931 181.931 0 0 0 87.209 34.107 Q 86.561 34.113 85.971 34.124 A 100.389 100.389 0 0 0 84.85 34.15 A 8.753 8.753 0 0 1 84.75 33.548 Q 84.7 33.157 84.7 32.825 A 8.727 8.727 0 0 1 84.712 32.391 Q 84.734 31.941 84.8 31.35 L 86.55 31.2 A 102.21 102.21 0 0 0 86.914 26.134 A 79.644 79.644 0 0 0 87 22.5 L 87 15.65 A 512.254 512.254 0 0 0 86.986 11.747 Q 86.949 6.918 86.813 4.379 A 42.907 42.907 0 0 0 86.75 3.4 L 84.75 3.25 A 5.43 5.43 0 0 1 84.647 2.638 Q 84.6 2.217 84.6 1.725 Q 84.6 1.065 84.628 0.676 A 4.449 4.449 0 0 1 84.65 0.45 Q 88.84 0.22 90.825 0.032 A 41.519 41.519 0 0 0 91.15 0 L 91.35 0.25 A 97.961 97.961 0 0 0 90.826 6.562 Q 90.655 9.813 90.65 13.417 A 157.8 157.8 0 0 0 90.65 13.65 A 12.123 12.123 0 0 1 93.484 11.559 A 14.162 14.162 0 0 1 94.25 11.175 A 11.333 11.333 0 0 1 96.112 10.492 A 8.32 8.32 0 0 1 98.25 10.2 Q 104.15 10.2 104.15 16.6 Z M 143.883 24.462 A 4.057 4.057 0 0 0 142.9 24.35 A 3.704 3.704 0 0 0 142.252 24.403 Q 140.775 24.666 140.416 26.218 A 5.035 5.035 0 0 0 140.3 27.35 A 5.925 5.925 0 0 0 141.71 31.331 A 7.549 7.549 0 0 0 143.575 32.875 A 13.287 13.287 0 0 0 146.743 34.259 A 15.547 15.547 0 0 0 151.1 34.85 A 12.863 12.863 0 0 0 152.948 34.722 A 9.384 9.384 0 0 0 158.075 32.35 A 8.127 8.127 0 0 0 160.278 29.079 A 9.333 9.333 0 0 0 160.8 25.9 A 9.581 9.581 0 0 0 160.777 25.235 A 7.836 7.836 0 0 0 159.65 21.625 A 10.694 10.694 0 0 0 159.316 21.113 A 9.026 9.026 0 0 0 156.8 18.65 A 62.125 62.125 0 0 0 155.483 17.821 A 75.016 75.016 0 0 0 153.1 16.425 Q 151.1 15.3 149.4 14.425 A 10.354 10.354 0 0 1 149.164 14.299 A 9.008 9.008 0 0 1 146.55 12.175 A 4.791 4.791 0 0 1 145.683 10.643 A 5.497 5.497 0 0 1 145.4 8.85 A 5.785 5.785 0 0 1 145.405 8.609 A 4.407 4.407 0 0 1 146.675 5.6 Q 147.95 4.3 150.5 4.3 Q 153.05 4.3 154.8 5.9 A 2.553 2.553 0 0 0 154.458 6.533 Q 154.323 6.89 154.259 7.331 A 6.017 6.017 0 0 0 154.2 8.2 A 4.571 4.571 0 0 0 154.267 9 A 3.279 3.279 0 0 0 155.05 10.65 A 2.742 2.742 0 0 0 156.467 11.488 A 4.057 4.057 0 0 0 157.45 11.6 A 3.648 3.648 0 0 0 157.918 11.571 Q 159.572 11.357 159.943 9.552 A 5.874 5.874 0 0 0 160.05 8.375 A 5.62 5.62 0 0 0 158.82 4.75 A 7.108 7.108 0 0 0 157.125 3.25 A 11.349 11.349 0 0 0 153.796 1.789 A 14.143 14.143 0 0 0 150.2 1.35 A 12.522 12.522 0 0 0 147.842 1.562 A 8.917 8.917 0 0 0 143.65 3.525 A 6.941 6.941 0 0 0 141.444 6.948 A 9.33 9.33 0 0 0 141.1 9.55 A 9.502 9.502 0 0 0 141.11 9.986 A 7.554 7.554 0 0 0 142.7 14.4 Q 144.3 16.45 146.55 17.675 Q 148.8 18.9 151.075 20 A 15.457 15.457 0 0 1 152.038 20.508 A 13.117 13.117 0 0 1 154.95 22.75 Q 156.55 24.4 156.55 26.7 A 6.312 6.312 0 0 1 156.468 27.741 A 4.364 4.364 0 0 1 155.1 30.325 Q 154.092 31.246 152.395 31.527 A 9.946 9.946 0 0 1 150.775 31.65 Q 147.9 31.65 145.7 29.85 A 3.245 3.245 0 0 0 145.915 29.339 Q 146.038 28.961 146.097 28.508 A 6.891 6.891 0 0 0 146.15 27.625 Q 146.15 26.25 145.3 25.3 A 2.742 2.742 0 0 0 143.883 24.462 Z M 40.85 27.65 L 40.9 22.3 A 90.025 90.025 0 0 0 40.636 15.3 A 80.232 80.232 0 0 0 40.5 13.75 L 38.65 13.6 Q 38.5 12.8 38.5 11.95 Q 38.5 11.214 38.537 10.891 A 1.848 1.848 0 0 1 38.55 10.8 A 50.069 50.069 0 0 0 40.617 10.713 Q 41.543 10.657 42.576 10.566 A 101.908 101.908 0 0 0 44.75 10.35 L 45 10.6 A 25.974 25.974 0 0 0 44.804 12.35 Q 44.55 15.435 44.55 21.15 L 44.55 23.5 A 36.346 36.346 0 0 0 44.598 25.448 Q 44.699 27.315 45.009 28.527 A 6.236 6.236 0 0 0 45.325 29.475 Q 46.05 31.135 47.715 31.243 A 3.649 3.649 0 0 0 47.95 31.25 A 5.31 5.31 0 0 0 50.05 30.785 Q 51.741 30.059 53.6 28.2 Q 53.7 27.05 53.7 23.75 L 53.7 22.3 A 90.025 90.025 0 0 0 53.436 15.3 A 80.232 80.232 0 0 0 53.3 13.75 L 51.45 13.6 Q 51.3 12.75 51.3 11.925 Q 51.3 11.1 51.35 10.8 A 50.069 50.069 0 0 0 53.417 10.713 Q 54.343 10.657 55.376 10.566 A 101.908 101.908 0 0 0 57.55 10.35 L 57.8 10.6 A 25.974 25.974 0 0 0 57.604 12.35 Q 57.35 15.435 57.35 21.15 L 57.35 22.75 Q 57.35 26.85 57.8 30.75 L 59.65 30.85 A 41.803 41.803 0 0 1 59.694 31.364 Q 59.749 32.064 59.75 32.456 A 5.689 5.689 0 0 1 59.75 32.475 A 4.647 4.647 0 0 1 59.729 32.9 Q 59.694 33.281 59.6 33.75 A 46.012 46.012 0 0 0 58.528 33.819 Q 57.323 33.909 55.705 34.079 A 172.911 172.911 0 0 0 54.15 34.25 Q 53.754 33.359 53.554 31.783 A 18.01 18.01 0 0 1 53.55 31.75 Q 49.8 34.85 46.65 34.85 A 8.888 8.888 0 0 1 45.022 34.712 Q 44.134 34.546 43.453 34.181 A 3.867 3.867 0 0 1 42.175 33.1 Q 40.92 31.443 40.854 28.038 A 19.81 19.81 0 0 1 40.85 27.65 Z M 63.3 29.05 L 63.3 28.85 Q 63.3 26.521 65.048 26.201 A 3.342 3.342 0 0 1 65.65 26.15 A 3.591 3.591 0 0 1 66.557 26.258 A 2.491 2.491 0 0 1 67.825 27.025 Q 68.6 27.9 68.6 29.05 A 8.576 8.576 0 0 1 68.576 29.72 Q 68.524 30.379 68.362 30.818 A 2.399 2.399 0 0 1 68.35 30.85 A 3.192 3.192 0 0 0 69.133 31.207 Q 69.925 31.456 71.1 31.493 A 13.407 13.407 0 0 0 71.525 31.5 A 10.134 10.134 0 0 0 72.724 31.434 Q 74.012 31.28 74.798 30.768 A 3.048 3.048 0 0 0 74.825 30.75 Q 75.902 30.032 75.948 28.786 A 3.037 3.037 0 0 0 75.95 28.675 A 2.793 2.793 0 0 0 75.344 26.948 A 4.244 4.244 0 0 0 74.725 26.3 A 10.011 10.011 0 0 0 73.037 25.141 A 12.841 12.841 0 0 0 71.75 24.525 Q 70 23.8 68.25 22.975 Q 66.5 22.15 65.275 20.6 Q 64.05 19.05 64.05 16.9 A 7.105 7.105 0 0 1 64.382 14.676 A 5.74 5.74 0 0 1 66.225 12 Q 68.4 10.2 71.9 10.2 A 12.039 12.039 0 0 1 74.185 10.404 Q 75.522 10.663 76.576 11.249 A 6.597 6.597 0 0 1 77.475 11.85 Q 79.533 13.486 79.55 16.081 A 6.619 6.619 0 0 1 79.55 16.125 Q 79.55 18.75 77.2 18.75 A 3.591 3.591 0 0 1 76.293 18.642 A 2.491 2.491 0 0 1 75.025 17.875 Q 74.25 17 74.25 15.8 A 5.974 5.974 0 0 1 74.306 14.956 Q 74.371 14.505 74.509 14.128 A 3.177 3.177 0 0 1 74.65 13.8 A 4.394 4.394 0 0 0 72.068 12.856 A 5.547 5.547 0 0 0 71.8 12.85 A 5.605 5.605 0 0 0 70.599 12.972 A 3.925 3.925 0 0 0 69.075 13.65 A 2.597 2.597 0 0 0 68.039 15.434 A 3.909 3.909 0 0 0 68 16 A 3.532 3.532 0 0 0 69.032 18.509 A 4.78 4.78 0 0 0 69.225 18.7 A 9.243 9.243 0 0 0 71.245 20.127 A 11.271 11.271 0 0 0 72.2 20.575 Q 73.95 21.3 75.7 22.075 Q 77.45 22.85 78.675 24.275 A 5.036 5.036 0 0 1 79.864 27.098 A 6.65 6.65 0 0 1 79.9 27.8 A 7.831 7.831 0 0 1 79.581 30.09 A 6.083 6.083 0 0 1 77.725 32.95 Q 75.55 34.85 71.8 34.85 A 14.397 14.397 0 0 1 69.206 34.63 Q 67.169 34.256 65.675 33.25 A 6.008 6.008 0 0 1 64.299 32.001 A 4.626 4.626 0 0 1 63.3 29.05 Z M 111.897 11.815 A 32.202 32.202 0 0 0 111.4 17.75 A 75.857 75.857 0 0 0 111.404 18.579 Q 111.418 19.8 111.471 20.888 A 41.977 41.977 0 0 0 111.625 23 Q 111.85 25.25 112.625 27.6 A 15.835 15.835 0 0 0 112.671 27.737 Q 113.018 28.759 113.467 29.616 A 9.532 9.532 0 0 0 114.7 31.45 Q 115.434 32.297 116.478 32.968 A 11.535 11.535 0 0 0 118.275 33.9 A 10.284 10.284 0 0 0 118.601 34.03 Q 120.771 34.85 123.675 34.85 Q 126.8 34.85 129.075 33.9 A 13.6 13.6 0 0 0 129.203 33.846 Q 131.387 32.908 132.65 31.45 Q 133.381 30.606 133.946 29.494 A 13.548 13.548 0 0 0 134.725 27.6 A 24.087 24.087 0 0 0 135.038 26.577 A 20.881 20.881 0 0 0 135.725 23 A 37.573 37.573 0 0 0 135.804 22.092 Q 135.95 20.164 135.95 17.75 Q 135.95 5.706 129.33 2.507 A 12.871 12.871 0 0 0 123.675 1.35 A 17.205 17.205 0 0 0 122.61 1.382 Q 113.76 1.931 111.897 11.815 Z M 119.45 30.05 Q 121.15 31.15 123.675 31.15 A 9.638 9.638 0 0 0 125.595 30.968 Q 126.901 30.703 127.925 30.05 A 6.516 6.516 0 0 0 130.304 27.337 A 8.083 8.083 0 0 0 130.5 26.9 Q 131.666 24.14 131.926 20.172 A 36.371 36.371 0 0 0 132 17.8 A 32.747 32.747 0 0 0 131.707 13.212 Q 130.951 7.901 128.244 5.755 A 7.126 7.126 0 0 0 123.675 4.3 A 6.925 6.925 0 0 0 117.059 8.337 Q 115.35 11.683 115.35 17.8 A 35.162 35.162 0 0 0 115.56 21.811 Q 116.04 25.965 117.61 28.243 A 6.405 6.405 0 0 0 119.45 30.05 Z" vector-effect="non-scaling-stroke"/></g></svg>